<?xml version="1.0" encoding="utf-8"?>
<!-- Generator: Adobe Illustrator 27.1.1, SVG Export Plug-In . SVG Version: 6.00 Build 0)  -->
<svg version="1.1" id="Layer_1" xmlns="http://www.w3.org/2000/svg" xmlns:xlink="http://www.w3.org/1999/xlink" x="0px" y="0px"
	 viewBox="0 0 1080 1080" style="enable-background:new 0 0 1080 1080;" xml:space="preserve">
<style type="text/css">
	.st0{fill:#3754A5;}
	.st1{fill:#F9F9FA;}
	.st2{font-family:'Rajdhani-Semibold';}
	.st3{font-size:44.0094px;}
</style>
<g>
	<path class="st0" d="M512.45,352.31v26.87h-3.6c-16.76-12.61-38.62-18.32-60.75-13.91c-11.51,2.29-22.02,7.14-30.98,13.91h-3.56
		v-26.87c10.92-3.43,25.79-6.86,43.61-7.49C480.58,343.99,499.75,348.34,512.45,352.31z"/>
	<circle class="st0" cx="543.52" cy="365.47" r="4.74"/>
	<path class="st0" d="M549.23,371.6c0.64,15.4-1.03,28.58-3.08,38.63c-0.13-1.27-1.08-10.13-8.37-14.54c-2.42-1.47-4.83-2-6.61-2.2
		c2.35-4.96,5.23-12.43,6.66-21.9c1.49,1.39,3.49,2.28,5.69,2.28C545.72,373.87,547.72,372.99,549.23,371.6z"/>
	<path class="st0" d="M537,343.83l-15.31,6.72c-12.15-4.92-33.06-11.62-59.69-11.45c-25.6,0.17-45.74,6.59-57.7,11.45l-42.73-17.05
		c-0.73-0.29-0.75-1.33-0.03-1.64l101.36-44.14c0.55-0.24,1.18-0.25,1.74-0.02l101.52,41.85c0.67,0.28,0.68,1.22,0.02,1.51
		l-21.4,9.38c1.28,5.27,2.48,11.31,3.34,18.01c-1.34-0.86-2.9-1.38-4.61-1.38c-1.8,0-3.47,0.59-4.85,1.56
		C538.56,352.73,537.81,347.68,537,343.83z"/>
	<g>
		<path class="st0" d="M530.08,438.24c0,2.64-2.15,4.79-4.79,4.79s-4.79-2.15-4.79-4.79c0-31.77-25.77-57.52-57.52-57.52
			c-31.77,0.02-57.52,25.77-57.5,57.52c0,29.92,22.92,54.82,52.71,57.32v-9.64c-26.34-2.64-45.54-26.15-42.89-52.49
			c2.64-26.34,26.14-45.54,52.47-42.89c24.5,2.46,43.15,23.07,43.15,47.7c0,2.64-2.15,4.79-4.81,4.79c-2.64,0-4.79-2.15-4.79-4.79
			c0-21.18-17.16-38.34-38.34-38.34c-21.18,0-38.34,17.16-38.34,38.34c0,19.33,14.39,35.62,33.55,38.03v-9.69
			c-15.66-2.64-26.19-17.49-23.55-33.15c2.66-15.64,17.51-26.19,33.15-23.53c13.84,2.33,23.95,14.32,23.95,28.34
			c0,2.64-2.15,4.79-4.79,4.79c-2.64,0-4.79-2.15-4.79-4.79c0-10.59-8.59-19.18-19.18-19.18c-10.57,0-19.16,8.57-19.16,19.16
			c0,8.74,5.91,16.39,14.37,18.57v-10.26c-4.59-2.64-6.15-8.52-3.51-13.1c2.64-4.57,8.52-6.15,13.09-3.51
			c4.59,2.64,6.17,8.52,3.52,13.1c-0.84,1.45-2.06,2.66-3.52,3.51v63.6c0,2.64-2.15,4.79-4.79,4.79c-2.64,0-4.79-2.15-4.79-4.79
			v-4.97c-36.96-2.66-64.77-34.78-62.11-71.75c2.17-30.12,24.19-55.08,53.81-60.99c36.34-7.23,71.67,16.37,78.9,52.71
			C529.66,429.45,530.08,433.84,530.08,438.24z"/>
	</g>
</g>
<text transform="matrix(1 0 0 1 477.1523 484.8711)" class="st1 st2 st3">Kepanga Omuludi</text>
<g>
	<g>
		<path class="st1" d="M488.52,498.79h-5.75v5.36h6.44v1.6h-8.36V490.9h8.02v1.6h-6.1v4.7h5.75V498.79z"/>
		<path class="st1" d="M491.62,497.97c0-1.11-0.04-1.99-0.09-2.88h1.71l0.11,1.75h0.05c0.52-1,1.76-1.99,3.52-1.99
			c1.46,0,3.75,0.88,3.75,4.54v6.35h-1.93v-6.14c0-1.72-0.65-3.16-2.46-3.16c-1.27,0-2.26,0.9-2.61,1.99
			c-0.08,0.24-0.13,0.58-0.13,0.9v6.42h-1.93V497.97z"/>
		<path class="st1" d="M511.44,505.36c-0.51,0.25-1.62,0.62-3.06,0.62c-3.21,0-5.31-2.19-5.31-5.44c0-3.28,2.24-5.68,5.72-5.68
			c1.14,0,2.17,0.29,2.69,0.57l-0.43,1.49c-0.47-0.25-1.2-0.51-2.26-0.51c-2.43,0-3.76,1.82-3.76,4.03c0,2.47,1.59,3.98,3.71,3.98
			c1.08,0,1.82-0.27,2.37-0.51L511.44,505.36z"/>
		<path class="st1" d="M523.35,500.32c0,3.94-2.74,5.67-5.3,5.67c-2.89,0-5.12-2.1-5.12-5.49c0-3.56,2.34-5.65,5.29-5.65
			C521.28,494.85,523.35,497.08,523.35,500.32z M514.9,500.44c0,2.34,1.34,4.09,3.23,4.09c1.86,0,3.24-1.74,3.24-4.15
			c0-1.8-0.91-4.08-3.21-4.08C515.89,496.31,514.9,498.42,514.9,500.44z"/>
		<path class="st1" d="M525.8,497.97c0-1.11-0.04-1.99-0.09-2.88h1.71l0.11,1.75h0.05c0.52-1,1.76-1.99,3.52-1.99
			c1.46,0,3.75,0.88,3.75,4.54v6.35h-1.93v-6.14c0-1.72-0.65-3.16-2.46-3.16c-1.27,0-2.26,0.9-2.61,1.99
			c-0.08,0.24-0.13,0.58-0.13,0.9v6.42h-1.93V497.97z"/>
		<path class="st1" d="M540.35,492.03v3.07h2.78v1.47h-2.78v5.74c0,1.33,0.38,2.08,1.46,2.08c0.5,0,0.87-0.06,1.12-0.14l0.09,1.47
			c-0.38,0.15-0.98,0.27-1.73,0.27c-0.89,0-1.63-0.29-2.09-0.82c-0.53-0.59-0.75-1.53-0.75-2.78v-5.81h-1.65v-1.47h1.65v-2.56
			L540.35,492.03z"/>
		<path class="st1" d="M545.31,498.41c0-1.26-0.03-2.33-0.09-3.32h1.7l0.07,2.09h0.07c0.5-1.43,1.67-2.33,2.97-2.33
			c0.21,0,0.36,0.01,0.54,0.05v1.82c-0.2-0.04-0.39-0.06-0.66-0.06c-1.37,0-2.33,1.03-2.59,2.48c-0.05,0.27-0.08,0.59-0.08,0.9v5.69
			h-1.93V498.41z"/>
		<path class="st1" d="M553.6,500.77c0.04,2.62,1.7,3.7,3.64,3.7c1.39,0,2.23-0.25,2.95-0.54l0.34,1.38
			c-0.68,0.31-1.86,0.68-3.55,0.68c-3.27,0-5.24-2.18-5.24-5.37c0-3.23,1.9-5.75,5.01-5.75c3.47,0,4.38,3.05,4.38,5.01
			c0,0.41-0.02,0.7-0.07,0.91H553.6z M559.27,499.38c0.02-1.22-0.5-3.13-2.67-3.13c-1.98,0-2.82,1.79-2.97,3.13H559.27z"/>
		<path class="st1" d="M577.12,502.83c0,1.12,0.04,2.07,0.09,2.91h-1.71l-0.1-1.74h-0.05c-0.49,0.86-1.62,1.98-3.52,1.98
			c-1.67,0-3.67-0.93-3.67-4.67v-6.22h1.93v5.88c0,2.03,0.63,3.41,2.38,3.41c1.3,0,2.2-0.91,2.56-1.78c0.1-0.28,0.18-0.62,0.18-0.99
			v-6.52h1.93V502.83z"/>
		<path class="st1" d="M580.35,497.97c0-1.11-0.04-1.99-0.09-2.88h1.68l0.1,1.71h0.05c0.59-1.01,1.59-1.96,3.36-1.96
			c1.44,0,2.55,0.88,3,2.13h0.04c0.34-0.61,0.76-1.07,1.2-1.39c0.64-0.48,1.34-0.75,2.34-0.75c1.42,0,3.52,0.92,3.52,4.62v6.27
			h-1.89v-6.02c0-2.06-0.76-3.28-2.31-3.28c-1.11,0-1.96,0.81-2.3,1.74c-0.09,0.28-0.16,0.63-0.16,0.97v6.59h-1.89v-6.39
			c0-1.7-0.75-2.92-2.21-2.92c-1.21,0-2.09,0.96-2.41,1.93c-0.09,0.28-0.15,0.62-0.15,0.95v6.42h-1.89V497.97z"/>
		<path class="st1" d="M603.39,498.57c0-1.36-0.04-2.46-0.09-3.47h1.73l0.11,1.81h0.04c0.77-1.3,2.05-2.06,3.78-2.06
			c2.58,0,4.52,2.17,4.52,5.4c0,3.84-2.35,5.73-4.84,5.73c-1.42,0-2.65-0.62-3.28-1.68h-0.04v5.8h-1.93V498.57z M605.31,501.41
			c0,0.27,0.03,0.54,0.08,0.79c0.35,1.35,1.52,2.27,2.9,2.27c2.05,0,3.24-1.68,3.24-4.12c0-2.12-1.11-3.95-3.16-3.95
			c-1.32,0-2.56,0.93-2.93,2.39c-0.06,0.25-0.12,0.53-0.12,0.79V501.41z"/>
		<path class="st1" d="M615.92,498.41c0-1.26-0.03-2.33-0.09-3.32h1.7l0.07,2.09h0.07c0.5-1.43,1.67-2.33,2.97-2.33
			c0.21,0,0.36,0.01,0.54,0.05v1.82c-0.2-0.04-0.39-0.06-0.66-0.06c-1.37,0-2.33,1.03-2.59,2.48c-0.05,0.27-0.08,0.59-0.08,0.9v5.69
			h-1.93V498.41z"/>
		<path class="st1" d="M632.76,500.32c0,3.94-2.74,5.67-5.29,5.67c-2.89,0-5.12-2.1-5.12-5.49c0-3.56,2.34-5.65,5.29-5.65
			C630.7,494.85,632.76,497.08,632.76,500.32z M624.32,500.44c0,2.34,1.34,4.09,3.23,4.09c1.86,0,3.25-1.74,3.25-4.15
			c0-1.8-0.91-4.08-3.21-4.08C625.31,496.31,624.32,498.42,624.32,500.44z"/>
		<path class="st1" d="M635.41,505.75v-9.18h-1.49v-1.47h1.49v-0.51c0-1.5,0.34-2.86,1.24-3.73c0.73-0.7,1.7-0.98,2.59-0.98
			c0.7,0,1.28,0.15,1.65,0.31l-0.26,1.49c-0.3-0.13-0.67-0.24-1.24-0.24c-1.63,0-2.06,1.45-2.06,3.09v0.58h2.57v1.47h-2.56v9.18
			H635.41z"/>
		<path class="st1" d="M642.73,500.77c0.04,2.62,1.7,3.7,3.64,3.7c1.38,0,2.23-0.25,2.95-0.54l0.34,1.38
			c-0.68,0.31-1.86,0.68-3.55,0.68c-3.27,0-5.24-2.18-5.24-5.37c0-3.23,1.9-5.75,5.01-5.75c3.47,0,4.38,3.05,4.38,5.01
			c0,0.41-0.02,0.7-0.07,0.91H642.73z M648.4,499.38c0.02-1.22-0.5-3.13-2.67-3.13c-1.98,0-2.82,1.79-2.97,3.13H648.4z"/>
		<path class="st1" d="M652.41,503.77c0.58,0.36,1.6,0.76,2.57,0.76c1.41,0,2.07-0.7,2.07-1.59c0-0.93-0.56-1.42-1.98-1.95
			c-1.92-0.7-2.83-1.74-2.83-3.02c0-1.72,1.39-3.12,3.68-3.12c1.08,0,2.02,0.29,2.61,0.66l-0.48,1.41
			c-0.41-0.26-1.19-0.63-2.18-0.63c-1.14,0-1.76,0.66-1.76,1.46c0,0.88,0.63,1.27,2.02,1.82c1.84,0.68,2.79,1.61,2.79,3.2
			c0,1.89-1.47,3.21-3.98,3.21c-1.17,0-2.24-0.3-2.99-0.74L652.41,503.77z"/>
		<path class="st1" d="M661.13,503.77c0.58,0.36,1.6,0.76,2.57,0.76c1.41,0,2.07-0.7,2.07-1.59c0-0.93-0.56-1.42-1.98-1.95
			c-1.92-0.7-2.83-1.74-2.83-3.02c0-1.72,1.39-3.12,3.68-3.12c1.08,0,2.02,0.29,2.61,0.66l-0.48,1.41
			c-0.41-0.26-1.19-0.63-2.18-0.63c-1.14,0-1.76,0.66-1.76,1.46c0,0.88,0.63,1.27,2.02,1.82c1.84,0.68,2.79,1.61,2.79,3.2
			c0,1.89-1.47,3.21-3.98,3.21c-1.17,0-2.24-0.3-2.99-0.74L661.13,503.77z"/>
		<path class="st1" d="M679.76,500.32c0,3.94-2.74,5.67-5.29,5.67c-2.89,0-5.12-2.1-5.12-5.49c0-3.56,2.34-5.65,5.29-5.65
			C677.7,494.85,679.76,497.08,679.76,500.32z M671.32,500.44c0,2.34,1.34,4.09,3.23,4.09c1.86,0,3.25-1.74,3.25-4.15
			c0-1.8-0.91-4.08-3.21-4.08C672.31,496.31,671.32,498.42,671.32,500.44z"/>
		<path class="st1" d="M682.21,498.41c0-1.26-0.03-2.33-0.09-3.32h1.7l0.07,2.09h0.07c0.5-1.43,1.67-2.33,2.96-2.33
			c0.21,0,0.36,0.01,0.54,0.05v1.82c-0.2-0.04-0.39-0.06-0.66-0.06c-1.37,0-2.33,1.03-2.59,2.48c-0.05,0.27-0.08,0.59-0.08,0.9v5.69
			h-1.93V498.41z"/>
		<path class="st1" d="M701.68,505.36c-0.51,0.25-1.62,0.62-3.05,0.62c-3.21,0-5.31-2.19-5.31-5.44c0-3.28,2.24-5.68,5.72-5.68
			c1.14,0,2.17,0.29,2.69,0.57l-0.43,1.49c-0.47-0.25-1.2-0.51-2.26-0.51c-2.43,0-3.76,1.82-3.76,4.03c0,2.47,1.59,3.98,3.71,3.98
			c1.08,0,1.82-0.27,2.37-0.51L701.68,505.36z"/>
		<path class="st1" d="M713.59,500.32c0,3.94-2.74,5.67-5.29,5.67c-2.89,0-5.12-2.1-5.12-5.49c0-3.56,2.34-5.65,5.29-5.65
			C711.53,494.85,713.59,497.08,713.59,500.32z M705.15,500.44c0,2.34,1.34,4.09,3.23,4.09c1.86,0,3.25-1.74,3.25-4.15
			c0-1.8-0.91-4.08-3.21-4.08C706.14,496.31,705.15,498.42,705.15,500.44z"/>
		<path class="st1" d="M716.05,497.97c0-1.11-0.04-1.99-0.09-2.88h1.68l0.1,1.71h0.05c0.59-1.01,1.59-1.96,3.36-1.96
			c1.44,0,2.55,0.88,3,2.13h0.04c0.34-0.61,0.76-1.07,1.2-1.39c0.64-0.48,1.34-0.75,2.34-0.75c1.42,0,3.52,0.92,3.52,4.62v6.27
			h-1.89v-6.02c0-2.06-0.76-3.28-2.31-3.28c-1.11,0-1.96,0.81-2.3,1.74c-0.09,0.28-0.16,0.63-0.16,0.97v6.59h-1.89v-6.39
			c0-1.7-0.75-2.92-2.21-2.92c-1.21,0-2.09,0.96-2.41,1.93c-0.09,0.28-0.15,0.62-0.15,0.95v6.42h-1.89V497.97z"/>
		<path class="st1" d="M747.99,502.83c0,1.12,0.04,2.07,0.09,2.91h-1.71l-0.1-1.74h-0.05c-0.49,0.86-1.62,1.98-3.52,1.98
			c-1.67,0-3.67-0.93-3.67-4.67v-6.22h1.93v5.88c0,2.03,0.63,3.41,2.38,3.41c1.3,0,2.2-0.91,2.56-1.78c0.1-0.28,0.18-0.62,0.18-0.99
			v-6.52h1.93V502.83z"/>
		<path class="st1" d="M751.22,497.97c0-1.11-0.04-1.99-0.09-2.88h1.68l0.1,1.71h0.05c0.59-1.01,1.59-1.96,3.36-1.96
			c1.44,0,2.55,0.88,3,2.13h0.04c0.34-0.61,0.76-1.07,1.2-1.39c0.64-0.48,1.34-0.75,2.34-0.75c1.42,0,3.52,0.92,3.52,4.62v6.27
			h-1.89v-6.02c0-2.06-0.76-3.28-2.31-3.28c-1.11,0-1.96,0.81-2.3,1.74c-0.09,0.28-0.16,0.63-0.16,0.97v6.59h-1.89v-6.39
			c0-1.7-0.75-2.92-2.21-2.92c-1.21,0-2.09,0.96-2.41,1.93c-0.09,0.28-0.15,0.62-0.15,0.95v6.42h-1.89V497.97z"/>
		<path class="st1" d="M781.85,505.36c-0.51,0.25-1.62,0.62-3.05,0.62c-3.21,0-5.31-2.19-5.31-5.44c0-3.28,2.24-5.68,5.72-5.68
			c1.14,0,2.17,0.29,2.69,0.57l-0.43,1.49c-0.47-0.25-1.2-0.51-2.26-0.51c-2.43,0-3.76,1.82-3.76,4.03c0,2.47,1.59,3.98,3.71,3.98
			c1.08,0,1.82-0.27,2.37-0.51L781.85,505.36z"/>
		<path class="st1" d="M784.12,490.11h1.93v15.63h-1.93V490.11z"/>
		<path class="st1" d="M791.49,492.09c0,0.66-0.46,1.2-1.23,1.2c-0.7,0-1.17-0.54-1.17-1.2c0-0.67,0.49-1.21,1.2-1.21
			C791.01,490.88,791.48,491.41,791.49,492.09z M789.32,505.75V495.1h1.93v10.65H789.32z"/>
		<path class="st1" d="M802.07,505.36c-0.51,0.25-1.62,0.62-3.05,0.62c-3.21,0-5.31-2.19-5.31-5.44c0-3.28,2.24-5.68,5.72-5.68
			c1.14,0,2.17,0.29,2.69,0.57l-0.43,1.49c-0.47-0.25-1.2-0.51-2.26-0.51c-2.43,0-3.76,1.82-3.76,4.03c0,2.47,1.59,3.98,3.71,3.98
			c1.08,0,1.82-0.27,2.37-0.51L802.07,505.36z"/>
		<path class="st1" d="M806.26,499.98h0.04c0.26-0.37,0.63-0.85,0.93-1.21l3.14-3.67h2.33l-4.11,4.38l4.69,6.27h-2.36l-3.66-5.12
			l-0.99,1.11v4.01h-1.93v-15.63h1.93V499.98z"/>
	</g>
</g>
</svg>
